<?xml version="1.0" encoding="UTF-8"?>
<svg width="160px" height="189px" viewBox="0 0 160 189" version="1.1" xmlns="http://www.w3.org/2000/svg" xmlns:xlink="http://www.w3.org/1999/xlink">
    <!-- Generator: Sketch 42 (36781) - http://www.bohemiancoding.com/sketch -->
    <title>Page 1</title>
    <desc>Created with Sketch.</desc>
    <defs>
        <polygon id="path-1" points="0.155665706 9.21124694 13.2337061 9.21124694 13.2337061 0.30176045 0.155665706 0.30176045"></polygon>
        <polygon id="path-3" points="12.4816138 9.21124694 0.409221902 9.21124694 0.409221902 0.10054076 12.4816138 0.10054076 12.4816138 9.21124694"></polygon>
        <polygon id="path-5" points="4.77373904e-16 124.341762 4.77373904e-16 0.0765318543 103.40279 0.0765318543 103.40279 124.341762 0 124.341762"></polygon>
    </defs>
    <g id="Page-1" stroke="none" stroke-width="1" fill="none" fill-rule="evenodd">
        <g id="工作台" transform="translate(-296.000000, -211.000000)">
            <g id="Page-1" transform="translate(296.000000, 211.000000)">
                <path d="M46.0039193,168.523954 C45.3551585,170.685834 44.4352738,172.412021 43.2470317,173.708504 C41.8402305,175.004066 40.3273775,174.951102 38.705245,173.545926 C36.4348127,171.171727 34.2174063,168.255907 32.0557925,164.798005 C31.8376945,164.258686 31.7846686,163.934911 31.893487,163.826218 C31.9995389,163.719368 32.3241499,163.826218 32.8663977,164.149993 C35.4614409,165.769791 37.7853602,167.066274 39.8409222,168.038061 C41.5691066,168.795225 43.3000576,168.795225 45.0310086,168.038061 C45.5704899,167.713825 45.8951009,167.607895 46.0039193,167.713825 C46.2192507,167.713825 46.2192507,167.985096 46.0039193,168.523954 M30.4336599,154.267707 L30.4336599,161.072055 L36.2725072,161.072055 C36.921268,161.181208 37.7853602,160.479772 38.8675504,158.965904 C39.0828818,158.642128 39.4074928,158.642128 39.8409222,158.965904 C40.0562536,159.074596 40.3804035,159.289679 40.8138329,159.613915 C42.3266859,160.586162 43.3530836,161.181208 43.8953314,161.395831 C44.1111239,161.504984 44.2199424,161.613676 44.2199424,161.720066 C44.2199424,161.828759 44.1111239,161.881724 43.8953314,161.881724 C43.5711816,162.10003 43.0847262,162.20596 42.4359654,162.20596 L30.4336599,162.20596 L30.4336599,170.30587 L30.4336599,170.953881 C31.0824207,171.278117 31.5130836,171.819738 31.7311816,172.574139 C31.946513,173.655079 31.675389,174.518173 30.9201153,175.166184 C29.4049568,176.029278 27.5140058,176.137971 25.2435735,175.49042 C24.3767147,175.166184 23.2414986,174.518173 21.837464,173.545926 C20.5399424,172.682832 19.5112392,172.088246 18.7559654,171.76401 C17.8891066,171.333845 17.5119308,171.063034 17.6207493,170.953881 C17.7272622,170.739259 18.2137176,170.792224 19.0801153,171.115999 C20.16,171.440235 21.6198271,172.143513 23.4595965,173.22215 C24.4325072,173.763772 25.187781,174.140972 25.7300288,174.356055 C27.7828242,175.004066 29.1361383,174.735558 29.7848991,173.545926 C30.109049,172.898375 30.0537176,172.306092 29.6225937,171.76401 L29.2984438,171.76401 L25.2435735,171.76401 C24.2706628,171.76401 23.7842075,171.278117 23.7842075,170.30587 L23.7842075,162.20596 L12.4306628,162.20596 C11.563804,162.20596 11.1331412,161.881724 11.1331412,161.234173 L11.1331412,153.133803 C10.6997118,152.91872 10.2132565,152.810027 9.67331412,152.810027 C9.13106628,152.703177 8.86224784,152.485791 8.86224784,152.162016 C8.96876081,151.946933 9.29337176,151.83778 9.8356196,151.83778 C16.5385591,152.270709 21.7286455,150.812568 25.405879,147.463359 C26.594121,146.167797 27.6767723,146.167797 28.649683,147.463359 C30.9201153,149.516546 33.4598271,150.703876 36.2725072,151.028112 C39.0828818,151.351887 41.4625937,150.974226 43.4088761,149.893746 C43.9488184,149.569971 44.2729683,149.516546 44.3817867,149.731629 C44.4882997,150.055404 44.3264553,150.435828 43.8953314,150.865533 C42.9224207,151.946933 41.2444957,152.703177 38.8675504,153.133803 C37.3519308,153.351649 34.8131412,153.027873 31.2447262,152.162016 C30.8112968,152.055626 30.487147,151.999898 30.2713545,151.999898 C28.325072,151.136804 26.1611527,151.189769 23.7842075,152.162016 C21.5133141,152.810027 19.4047262,153.242495 17.4584438,153.458038 L17.4584438,161.072055 L23.7842075,161.072055 L23.7842075,154.591943 C23.7842075,154.161317 23.8902594,153.890967 24.1083573,153.781814 C24.2148703,153.781814 24.4325072,153.890967 24.7571182,154.105589 C26.3792507,155.077836 27.8916427,155.024411 29.2984438,153.943932 C29.5137752,153.620156 29.7848991,153.513306 30.109049,153.620156 C30.3248415,153.620156 30.4336599,153.837542 30.4336599,154.267707 M21.1887032,166.094027 C17.4026513,170.953881 12.3218444,173.979315 5.94305476,175.166184 C5.6189049,175.274877 5.40080692,175.221912 5.29429395,175.004066 C5.29429395,174.898137 5.45613833,174.735558 5.78074928,174.518173 C8.80691643,172.574139 11.1861671,170.30587 12.9171182,167.713825 C13.9970029,166.418263 14.5392507,165.015851 14.5392507,163.501982 C14.5392507,162.963124 14.6453026,162.691853 14.8634006,162.691853 C15.078732,162.585463 15.350317,162.800546 15.6744669,163.339864 C16.9719885,164.960123 18.647147,165.501744 20.7022478,164.960123 C21.2421902,164.74504 21.5668012,164.74504 21.6756196,164.960123 C21.7816715,165.284358 21.6198271,165.663862 21.1887032,166.094027" id="Fill-1" fill="#40220F"></path>
                <path d="M72.8300634,162.691853 L72.8300634,165.446016 L76.2361729,165.446016 C76.9909856,165.446016 77.9113314,164.692075 78.9935216,163.178207 C79.0995735,162.963124 79.3176715,162.963124 79.6418213,163.178207 C80.0729452,163.610675 80.9393429,164.258686 82.2368646,165.12178 C82.6679885,165.446016 82.9921383,165.663862 83.2102363,165.770252 C83.5343862,165.878944 83.5878732,166.040602 83.3720807,166.256145 C83.0479308,166.365298 82.6679885,166.418263 82.2368646,166.418263 L72.8300634,166.418263 L72.8300634,171.115999 C73.4788242,171.440235 73.909487,171.981856 74.127585,172.736257 C74.234098,173.817197 73.9652795,174.680291 73.3165187,175.328302 C72.1255101,176.082703 70.5038386,176.244821 68.4510432,175.814195 C67.5841844,175.599113 66.2336369,174.898137 64.3961729,173.708504 C62.8805533,172.736257 61.7453372,172.034821 60.9900634,171.602353 C60.6659135,171.495963 60.556634,171.333845 60.6659135,171.115999 C60.6659135,171.01007 60.828219,171.01007 61.1523689,171.115999 C62.2322536,171.548927 63.5297752,172.143513 65.0449337,172.898375 C66.4489683,173.655079 67.4776715,174.140972 68.1264323,174.356055 C70.2880461,175.004066 71.6948473,174.789444 72.3436081,173.708504 C72.5589395,173.277879 72.5589395,172.898375 72.3436081,172.574139 C72.2343285,172.682832 72.0189971,172.736257 71.6948473,172.736257 L67.4776715,172.736257 C66.8289107,172.629867 66.5047608,172.250364 66.5047608,171.602353 L66.5047608,166.418263 L59.5306974,166.418263 C58.1243573,166.418263 57.1509856,165.931909 56.6110432,164.960123 C56.5022248,164.636347 56.6110432,164.529497 56.9356542,164.636347 C57.584415,165.177508 58.5015331,165.446016 59.6925418,165.446016 L66.5047608,165.446016 L66.5047608,162.691853 C66.5047608,161.720066 66.8823977,161.289901 67.6399769,161.396291 L70.7214755,161.396291 C71.4767493,161.289901 72.0189971,161.072055 72.3436081,160.747819 C73.9652795,160.099808 74.5052219,159.18375 73.9652795,157.994117 C73.2077003,156.91548 71.8571527,156.968905 69.9108703,158.155774 C67.3158271,159.884725 65.1514467,160.694855 63.4232622,160.586162 C61.6923112,160.479772 60.6659135,159.452257 60.3417637,157.507763 C60.2324841,157.078059 60.2324841,156.860213 60.3417637,156.860213 C60.556634,156.753362 60.7724265,156.806787 60.9900634,157.02187 C62.7187089,158.750821 64.8272968,158.965904 67.3158271,157.670342 C69.9108703,156.267929 72.1813026,155.510765 74.127585,155.402072 C77.2625706,155.295222 78.9377291,156.267929 79.155366,158.317892 C79.0465476,159.938151 77.9113314,161.072055 75.7497176,161.720066 C74.8828588,161.828759 73.8564611,161.991338 72.6677579,162.20596 C72.7742709,162.315113 72.8300634,162.47677 72.8300634,162.691853 M62.4498905,147.301702 C62.1257406,149.030653 61.5830317,150.703876 60.828219,152.323673 L74.9386513,152.323673 C75.4785937,152.432827 76.4515043,151.675662 77.8578444,150.055404 C77.9643573,149.731629 78.2354813,149.731629 78.6689107,150.055404 C80.1817637,151.028112 81.5881037,151.893508 82.8860865,152.647909 L83.2102363,152.972145 L82.8860865,153.133803 C82.5614755,153.351649 82.0750202,153.458038 81.4262594,153.458038 L60.3417637,153.458038 C59.2591124,155.83454 57.7462594,158.049845 55.7999769,160.099808 L55.7999769,174.680291 C55.9064899,175.436995 55.528853,175.86716 54.6647608,175.976313 L50.772196,175.976313 C50.0146167,175.86716 49.6369798,175.436995 49.6369798,174.680291 L49.6369798,165.770252 C47.6906974,167.174967 45.5821095,168.470989 43.3116772,169.658319 C42.9870663,169.767012 42.7694294,169.767012 42.6629164,169.658319 C42.6629164,169.442776 42.7694294,169.227693 42.9870663,169.010308 C48.3929452,164.044064 52.0139251,158.859974 53.8536945,153.458038 L47.8530029,153.458038 C45.9062594,153.567192 44.7152507,153.133803 44.2845879,152.162016 C44.066951,151.622697 44.1757695,151.513544 44.6087378,151.838241 C45.2579597,152.162016 46.4996888,152.323673 48.3394582,152.323673 L54.3401499,152.323673 C54.7712738,150.597486 54.8270663,148.92196 54.5029164,147.301702 C54.3936369,146.871076 54.4466628,146.600726 54.6647608,146.491572 C54.8800922,146.385643 55.1512161,146.491572 55.4758271,146.815808 C57.6374409,148.329216 59.5306974,148.329216 61.1523689,146.815808 C61.5830317,146.491572 61.9076427,146.329915 62.1257406,146.329915 C62.4498905,146.438608 62.5564035,146.762383 62.4498905,147.301702" id="Fill-3" fill="#40220F"></path>
                <path d="M120.903746,161.719882 C120.794928,161.719882 120.685648,161.77561 120.578674,161.882 C120.360576,161.991153 120.092219,162.044118 119.768069,162.044118 L111.334179,162.044118 L111.334179,170.792039 L111.334179,171.115815 C112.089914,171.440051 112.469856,171.981672 112.469856,172.736073 C112.794006,173.70832 112.522882,174.573717 111.658329,175.328118 C110.791931,175.976129 109.226052,176.138247 106.954697,175.814472 C105.872968,175.490236 104.360115,174.573717 102.413833,173.060309 C101.222363,172.088522 100.304784,171.387086 99.6564841,170.954157 C99.3323343,170.739075 99.1700288,170.576957 99.1700288,170.468264 C99.2765418,170.361874 99.4941787,170.361874 99.8183285,170.468264 C100.574063,170.792039 101.602767,171.387086 102.900288,172.25018 C104.628473,173.439812 105.926455,174.141249 106.792392,174.356331 C108.738674,175.004343 110.036657,174.78926 110.685879,173.70832 C110.90121,173.060309 110.90121,172.573955 110.685879,172.25018 L110.198501,172.25018 L106.144092,172.25018 C105.277695,172.25018 104.846571,171.764286 104.846571,170.792039 L104.846571,162.044118 L100.142939,162.044118 C98.627781,162.044118 97.5483573,161.613953 96.8986744,160.748096 C96.3568876,163.340141 95.2770029,165.717103 93.6557925,167.876219 C94.952853,168.309148 96.2503746,168.14703 97.5483573,167.390326 C97.9785591,167.06609 98.249683,166.9597 98.3585014,167.06609 C98.4650144,167.175243 98.4650144,167.499019 98.3585014,168.038337 C97.9255331,169.98191 97.1679539,171.820014 96.0885303,173.546202 C94.1422478,175.490236 92.5201153,175.275153 91.2225937,172.898191 C90.8984438,172.25018 90.6273199,171.764286 90.4119885,171.440051 C87.5988473,173.817473 84.3015562,175.275153 80.5182709,175.814472 L79.869049,175.814472 C79.7602305,175.599389 79.869049,175.436811 80.1936599,175.328118 C83.9774063,173.70832 86.8970605,171.333661 88.9521614,168.199994 C88.7340634,167.660676 88.4099135,166.903972 87.9787896,165.932185 C87.2212104,164.42062 86.7342939,163.286715 86.5189625,162.530011 C85.221902,164.04388 83.9243804,165.393327 82.6263977,166.580197 C82.1929683,166.903972 81.8688184,167.06609 81.653487,167.06609 C81.5446686,166.9597 81.653487,166.688889 81.9776369,166.256421 C83.8151009,163.448833 84.9498559,159.614191 85.3842075,154.753877 L84.0862248,154.753877 C82.1399424,154.753877 80.8954467,154.214558 80.3559654,153.133618 C80.0313545,152.5943 80.1378674,152.485607 80.6801153,152.809843 C81.653487,153.457854 82.894755,153.78209 84.4103746,153.78209 L85.3842075,153.78209 C85.5995389,151.838056 85.7083573,149.731905 85.7083573,147.463635 C85.7083573,147.03347 85.8144092,146.762199 86.0325072,146.653506 C86.2478386,146.547577 86.5189625,146.709234 86.8431124,147.13986 C88.247147,148.111647 89.7069741,148.005717 91.2225937,146.816085 C91.6527954,146.385459 91.9783285,146.223801 92.1959654,146.329731 C92.4112968,146.547577 92.4643228,146.924777 92.3582709,147.463635 C92.2489914,148.653728 91.9248415,150.379916 91.384438,152.648186 C91.2756196,153.189807 91.1668012,153.567008 91.0602882,153.78209 L92.8442651,153.78209 C93.6,153.890783 94.4106052,153.242772 95.2770029,151.838056 C95.4932565,151.513821 95.7643804,151.513821 96.0885303,151.838056 C97.7102017,152.809843 98.9523919,153.513582 99.8183285,153.943748 L100.142939,154.105865 C100.142939,154.214558 100.03366,154.323251 99.8183285,154.430101 C99.4941787,154.647947 98.9523919,154.753877 98.1966571,154.753877 L90.5742939,154.753877 C89.7069741,157.239992 88.6280115,159.452073 87.3300288,161.396107 C88.3029395,162.691669 89.2763112,163.881762 90.2492219,164.959938 C90.7891643,163.448833 91.2225937,160.856788 91.5467435,157.183804 C91.5467435,156.753638 91.6527954,156.535792 91.8708934,156.535792 C92.087147,156.535792 92.3024784,156.69791 92.5201153,157.022146 C94.0334294,157.888003 95.2770029,157.832275 96.2503746,156.860028 C96.6810375,156.429863 97.0061095,156.267745 97.2242075,156.374135 C97.5483573,156.482828 97.6544092,156.753638 97.5483573,157.183804 C97.4390778,158.156051 97.2772334,159.127837 97.061902,160.099624 C97.9255331,160.641706 99.0612104,160.909753 100.468012,160.909753 L104.846571,160.909753 L104.846571,157.022146 C103.87366,157.022146 102.953314,156.969182 102.088761,156.860028 C101.546974,156.753638 101.222363,156.644485 101.116311,156.535792 C101.116311,156.32071 101.384669,156.212017 101.926916,156.212017 C106.359424,156.105627 109.712507,155.186345 111.982478,153.457854 C113.280461,152.5943 113.657637,151.513821 113.118156,150.217798 C112.469856,149.354704 111.496484,149.083894 110.198501,149.40813 C109.117233,149.840598 107.386282,150.759419 105.008415,152.161832 C103.386744,153.027689 101.926916,153.133618 100.629856,152.485607 C99.2230548,151.731667 98.4119885,150.164373 98.1966571,147.787871 C98.0878386,147.357245 98.1408646,147.086435 98.3585014,146.977742 C98.5738329,146.977742 98.8989049,147.195588 99.3323343,147.625753 C100.629856,148.921776 102.520346,149.625515 105.008415,149.731905 C106.845879,149.625515 108.738674,148.921776 110.685879,147.625753 C113.386513,146.005955 115.495562,145.899105 117.01072,147.301517 C119.063977,149.569787 118.685418,151.893324 115.875965,154.267523 C114.577983,155.240231 113.062363,155.943509 111.334179,156.374135 L111.334179,160.909753 L112.30755,160.909753 C113.171182,160.909753 114.19804,160.099624 115.388588,158.479826 C115.604841,158.156051 115.875965,158.156051 116.200115,158.479826 C117.60415,159.345683 119.172795,160.262202 120.903746,161.233989 C121.119078,161.343142 121.119078,161.5048 120.903746,161.719882" id="Fill-5" fill="#40220F"></path>
                <path d="M132.645902,147.139768 C134.049937,147.357614 135.240945,147.248461 136.214317,146.815993 C137.727631,145.952438 138.915873,146.114556 139.782732,147.301886 C140.861695,148.706601 140.646824,149.949659 139.13351,151.027835 C138.484749,151.569456 137.618352,151.947118 136.538467,152.16174 L147.243251,152.16174 C148.107343,152.16174 149.133741,151.298646 150.324749,149.569695 C150.540542,149.245919 150.864692,149.245919 151.29766,149.569695 C151.837602,149.787541 152.648669,150.218167 153.730859,150.865717 C154.919562,151.513728 155.730628,152.000082 156.163597,152.323858 L156.488207,152.485515 C156.488207,152.594668 156.379389,152.703361 156.163597,152.809751 C155.839447,153.133987 155.296738,153.295644 154.541464,153.295644 L139.295816,153.295644 L139.45766,153.458223 C139.564634,153.566915 139.673452,153.675608 139.782732,153.781998 C141.295585,156.374043 143.350686,159.236898 145.945729,162.367801 C146.052242,162.261872 146.161522,162.099754 146.27034,161.881908 C146.376392,161.775518 146.432184,161.666825 146.432184,161.558133 C147.081406,159.722792 147.405556,157.779219 147.405556,155.726032 C147.405556,155.186713 147.511608,154.915903 147.729706,154.915903 C147.945499,154.915903 148.269648,155.133288 148.702617,155.563914 C150.215931,157.292865 152.162213,157.940876 154.541464,157.507947 C155.190686,157.401557 155.621349,157.401557 155.839447,157.507947 C155.945499,157.61664 155.892473,157.887911 155.677141,158.317616 C154.161522,161.34305 152.271493,163.98806 150.000599,166.256329 C150.540542,166.580105 150.97351,166.90388 151.29766,167.228116 C152.919793,168.199902 154.866075,168.146938 157.136507,167.066458 C157.785729,166.741762 158.163366,166.688797 158.272184,166.90388 C158.487516,167.121726 158.487516,167.551891 158.272184,168.199902 C157.081176,171.116183 155.405556,173.331027 153.244403,174.842132 C150.106651,176.138155 147.511608,175.222096 145.459274,172.08843 C145.350455,171.872887 145.187689,171.549112 144.972357,171.116183 C144.863539,170.791947 144.75472,170.577325 144.648207,170.468172 C139.782732,173.708689 133.887631,175.545872 126.969821,175.976037 C126.427112,175.976037 126.102963,175.920309 125.99645,175.81438 L126.644749,175.652262 C133.563481,174.356239 139.024692,171.496147 143.026536,167.066458 C141.404403,163.17793 139.997602,158.912663 138.80936,154.267891 C138.700542,153.729033 138.647516,153.404337 138.647516,153.295644 L131.024231,153.295644 L131.024231,153.458223 C131.997602,155.401796 133.943885,156.050268 136.863078,155.401796 C137.402559,155.295406 137.780657,155.295406 137.998294,155.401796 C138.104807,155.619642 137.998294,155.943417 137.673683,156.374043 C136.267804,157.993841 134.645671,159.507709 132.808669,160.909661 L132.808669,171.116183 C134.321522,168.957067 136.267804,166.688797 138.647516,164.311835 C139.186997,163.772977 139.620427,163.557434 139.944576,163.664284 C140.159908,163.98806 139.997602,164.420528 139.45766,164.959846 C137.618352,166.797951 135.727862,169.010031 133.781579,171.602076 C132.26596,173.43972 130.537775,174.356239 128.591493,174.356239 C126.102963,174.356239 124.103193,172.683016 122.59034,169.333807 C122.265729,168.795409 122.265729,168.470713 122.59034,168.36202 C122.914951,168.36202 123.239101,168.632831 123.563712,169.172149 C124.427804,170.468172 125.23887,171.496147 125.99645,172.250088 L125.99645,164.959846 C123.507919,166.256329 121.021695,167.228116 118.53547,167.876127 C117.886709,167.98528 117.506767,167.98528 117.400254,167.876127 C117.400254,167.769737 117.669072,167.551891 118.210859,167.228116 C121.885787,164.636071 125.185383,161.558133 128.104576,157.993841 C129.184461,156.591428 129.726709,155.133288 129.726709,153.61988 L129.726709,153.295644 L123.076795,153.295644 C121.345844,153.295644 120.048784,152.703361 119.184231,151.513728 C118.966133,150.97441 119.021925,150.865717 119.346536,151.189953 C120.42596,151.837964 121.779735,152.16174 123.400945,152.16174 L135.07864,152.16174 L135.07864,151.837964 C135.294432,151.083563 135.347458,150.488517 135.240945,150.055588 C135.022847,149.301187 134.049937,148.544944 132.321752,147.787779 C131.997602,147.681389 131.888323,147.519271 131.997602,147.301886 C132.103654,147.086803 132.321752,147.033838 132.645902,147.139768" id="Fill-7" fill="#40220F"></path>
                <path d="M15.3656715,184.991315 L14.8962767,188.072477 L5.43967723,188.072477 L5.43967723,187.536843 C6.60209798,187.581978 7.13835159,187.179907 7.04936023,186.33109 L7.04936023,181.172792 C7.13835159,180.235087 6.62423055,179.810909 5.50699712,179.899798 L5.50699712,179.364164 L11.0733372,179.364164 L11.0733372,179.899798 C10.0441729,179.856505 9.55310663,180.279762 9.59783285,181.172792 L9.59783285,187.536843 L10.9391585,187.536843 C12.5488415,187.536843 13.7559885,186.622166 14.5610605,184.790049 L15.3656715,184.991315 Z" id="Fill-9" fill="#40220F"></path>
                <path d="M21.0129337,186.264171 L21.0129337,181.172654 C21.1019251,180.234949 20.5873429,179.810771 19.4701095,179.90012 L19.4701095,179.364026 L28.9940288,179.364026 L29.3961037,181.910014 L28.5914928,182.110359 C28.1437695,180.63702 27.1602536,179.922688 25.6404841,179.966902 L23.4940865,179.966902 L23.4940865,183.24933 L25.0369107,183.24933 C26.153683,183.24933 26.7807723,182.847719 26.9144899,182.043577 L27.6522421,182.043577 L27.6522421,185.1252 L26.9144899,185.1252 C26.7807723,184.277305 26.153683,183.852666 25.0369107,183.852666 L23.4940865,183.852666 L23.4940865,187.469923 L25.6404841,187.469923 C27.1602536,187.515058 28.2110893,186.68927 28.7925303,184.991176 L29.5302824,185.192442 L29.1950663,188.072799 L19.4701095,188.072799 L19.4701095,187.537165 C20.5430778,187.58184 21.0567378,187.157662 21.0129337,186.264171" id="Fill-11" fill="#40220F"></path>
                <path d="M45.1704438,179.431314 L45.5056599,182.378452 L44.701049,182.6465 C43.8959769,180.726876 42.6657752,179.766143 41.0122882,179.766143 C38.6869856,179.766143 37.5250259,181.038676 37.5250259,183.584665 C37.5250259,186.220003 38.7990317,187.537211 41.3475043,187.537211 C42.9571873,187.537211 44.2085994,186.867093 45.103585,185.526857 L45.908196,185.794904 C44.9694063,187.447862 43.2924035,188.27365 40.8781095,188.27365 C36.8541326,188.229897 34.8188588,186.756097 34.7750548,183.852712 C34.8640461,180.77109 36.8979366,179.208402 40.8781095,179.163267 C41.5490029,179.163267 42.4204726,179.253076 43.493902,179.431314 C43.7617983,179.521124 44.0301556,179.565337 44.298513,179.565337 C44.4326916,179.565337 44.6779942,179.543231 45.0362651,179.498556 C44.8121729,179.543231 44.8568991,179.521124 45.1704438,179.431314" id="Fill-13" fill="#40220F"></path>
                <g id="Group-17" transform="translate(50.259366, 179.062496)">
                    <mask id="mask-2" fill="white">
                        <use xlink:href="#path-1"></use>
                    </mask>
                    <g id="Clip-16"></g>
                    <path d="M8.74033429,0.30176045 L13.2337061,0.30176045 L13.2337061,0.83739446 C11.9366455,0.659617394 11.3556657,1.30670749 11.4898444,2.780507 L11.4898444,5.52684028 C11.4898444,7.93834473 9.88062248,9.16712507 6.66125648,9.21133906 C3.35197695,9.21133906 1.69848991,8.16217803 1.69848991,6.06293485 L1.69848991,2.17717033 C1.74229395,1.23946539 1.22863401,0.793641037 0.155665706,0.83739446 L0.155665706,0.30176045 L5.65514697,0.30176045 L5.65514697,0.83739446 C4.58217867,0.793641037 4.08972911,1.23946539 4.17964265,2.17717033 L4.17964265,5.79488756 C4.17964265,7.58186947 5.25307205,8.4744393 7.39900865,8.4744393 C9.50021902,8.4744393 10.5731873,7.49252038 10.6179135,5.52684028 L10.6179135,2.780507 C10.7963573,1.30670749 10.1706513,0.659617394 8.74033429,0.83739446 L8.74033429,0.30176045 Z" id="Fill-15" fill="#40220F" mask="url(#mask-2)"></path>
                </g>
                <path d="M76.5177176,179.364256 L81.0110893,179.364256 L81.0110893,179.89989 C79.7140288,179.765866 79.133049,180.324989 79.2672277,181.574955 L79.2672277,188.139811 L77.3896484,188.139811 L70.5488415,181.038861 L70.5488415,185.86187 C70.4146628,187.068082 71.0403689,187.627205 72.4264207,187.536935 L72.4264207,188.072569 L67.933049,188.072569 L67.933049,187.536935 C69.2291873,187.670958 69.8110893,187.112757 69.6769107,185.86187 L69.6769107,181.306908 C69.765902,180.279854 69.2070548,179.811001 67.9999078,179.89989 L67.9999078,179.364256 L71.7559885,179.364256 L78.3952968,185.795088 L78.3952968,181.574955 C78.5294755,180.324989 77.9028473,179.765866 76.5177176,179.89989 L76.5177176,179.364256 Z" id="Fill-18" fill="#40220F"></path>
                <path d="M93.1637579,188.072661 L93.1637579,187.537027 C94.2809914,187.626837 94.7955735,187.201738 94.7065821,186.264033 L94.7065821,183.785286 L89.5418559,183.785286 L89.5418559,186.331275 C89.5418559,187.134956 90.0555159,187.537027 91.0846801,187.537027 L91.0846801,188.072661 L85.4510202,188.072661 L85.4510202,187.537027 C86.5677925,187.582162 87.1045072,187.180091 87.0607032,186.331275 L87.0607032,181.172976 C87.1948818,180.234811 86.6798386,179.811094 85.5183401,179.899982 L85.5183401,179.364348 L91.0178213,179.364348 L91.0178213,179.899982 C89.9443919,179.811094 89.4519424,180.234811 89.5418559,181.172976 L89.5418559,183.18241 L94.7065821,183.18241 L94.7065821,181.172976 C94.7955735,180.279946 94.3040461,179.856229 93.2306167,179.899982 L93.2306167,179.364348 L98.730098,179.364348 L98.730098,179.899982 C97.6119424,179.811094 97.0973602,180.234811 97.1877349,181.172976 L97.1877349,186.264033 C97.1430086,187.157984 97.6792622,187.582162 98.7974179,187.537027 L98.7974179,188.072661 L93.1637579,188.072661 Z" id="Fill-20" fill="#40220F"></path>
                <path d="M107.126732,184.589244 L110.547135,184.589244 L108.937914,181.373597 L107.126732,184.589244 Z M110.211919,188.072477 L110.211919,187.536843 C111.284888,187.536843 111.798548,187.380712 111.754282,187.06799 C111.754282,186.933967 111.664369,186.711054 111.486386,186.398333 L110.882352,185.259362 L106.724657,185.259362 L105.919585,186.66638 C105.919585,186.711054 105.89653,186.778297 105.852265,186.866724 C105.807539,186.91186 105.785406,186.978641 105.785406,187.06799 C105.740219,187.380712 106.299066,187.536843 107.461948,187.536843 L107.461948,188.072477 L102.901718,188.072477 L102.901718,187.536843 C103.974686,187.536843 104.622063,187.313931 104.846617,186.866724 L109.072092,179.364164 L110.413418,179.23014 L114.370075,186.732701 C114.638432,187.313931 115.242006,187.581978 116.181256,187.536843 L116.181256,188.072477 L110.211919,188.072477 Z" id="Fill-22" fill="#40220F"></path>
                <g id="Group-26" transform="translate(120.345821, 179.062496)">
                    <mask id="mask-4" fill="white">
                        <use xlink:href="#path-3"></use>
                    </mask>
                    <g id="Clip-25"></g>
                    <path d="M6.44541787,0.703416873 C4.25429395,0.614988902 3.18132565,1.95430421 3.22651297,4.72320504 C3.18132565,7.35854279 4.25429395,8.65364411 6.44541787,8.608509 C8.59135447,8.65364411 9.66478386,7.31386824 9.66478386,4.5891814 C9.66478386,1.99943932 8.59135447,0.703416873 6.44541787,0.703416873 M6.44541787,0.10054076 C10.3790202,0.14567587 12.3917003,1.64158237 12.4816138,4.5891814 C12.3917003,7.62659008 10.3790202,9.16717113 6.44541787,9.21138511 C2.46524496,9.16717113 0.453487032,7.69383218 0.409221902,4.78998658 C0.498674352,1.70882448 2.51043228,0.14567587 6.44541787,0.10054076" id="Fill-24" fill="#40220F" mask="url(#mask-4)"></path>
                </g>
                <path d="M140.486317,188.072661 L140.486317,187.537027 C141.737729,187.582162 142.319631,187.180091 142.230179,186.331275 L142.230179,184.455404 L139.144991,180.837687 C138.608738,180.213164 137.981648,179.899982 137.267412,179.899982 L137.267412,179.364348 L142.967931,179.364348 L142.967931,179.899982 C142.118133,179.899982 141.693464,180.011899 141.693464,180.234811 C141.693464,180.41397 141.804588,180.636882 142.029141,180.904929 L144.242398,183.450457 L146.321014,181.105734 C146.633637,180.793934 146.79087,180.547993 146.79087,180.368835 C146.79087,180.057034 146.321014,179.899982 145.382225,179.899982 L145.382225,179.364348 L150.009775,179.364348 L150.009775,179.899982 C148.981072,179.899982 148.042282,180.368835 147.192945,181.307 L144.779112,184.053333 L144.779112,186.331275 C144.688277,187.224766 145.248046,187.626837 146.455193,187.537027 L146.455193,188.072661 L140.486317,188.072661 Z" id="Fill-27" fill="#40220F"></path>
                <path d="M154.181395,179.364256 L159.747735,179.364256 L159.747735,179.89989 C158.674767,179.811001 158.182317,180.235179 158.272231,181.172884 L158.272231,186.331183 C158.227043,187.179999 158.742086,187.58207 159.815055,187.536935 L159.815055,188.072569 L154.047216,188.072569 L154.047216,187.536935 C155.254363,187.627205 155.812749,187.224674 155.723758,186.331183 L155.723758,181.172884 C155.812749,180.279854 155.298167,179.856137 154.181395,179.89989 L154.181395,179.364256 Z" id="Fill-29" fill="#40220F"></path>
                <path d="M72.9754928,22.5470139 C72.9754928,22.5470139 70.3163573,24.0912795 70.3163573,26.4387658 C70.3163573,28.786252 75.9440231,30.392233 76.9953199,22.6704446 C78.0466167,14.9491169 77.3047147,0.000184224938 86.7668473,0.000184224938 C96.2285187,0.000184224938 92.394513,14.8874015 100.062986,18.037648 C107.731458,21.1878944 108.040853,13.4048513 104.268634,12.9106679 C100.495954,12.4164845 102.660334,16.5550978 102.660334,16.5550978 C102.660334,16.5550978 100.37238,15.4433003 100.37238,13.2192447 C100.37238,10.9956497 102.784369,10.0072829 104.206386,10.0072829 C105.628865,10.0072829 108.782755,10.6866124 108.782755,16.7402439 C108.782755,22.7938753 100.681314,39.4109648 76.1916311,34.2218089 C76.1916311,34.2218089 68.5226974,32.1833599 68.5226974,26.4387658 C68.5226974,26.4387658 69.2650605,22.9177666 72.9754928,22.5470139" id="Fill-31" fill="#40220F"></path>
                <g id="Group-35" transform="translate(0.000000, 20.168486)">
                    <mask id="mask-6" fill="white">
                        <use xlink:href="#path-5"></use>
                    </mask>
                    <g id="Clip-34"></g>
                    <path d="M85.096853,12.3856269 C85.096853,12.3856269 85.7769683,16.9567082 82.9942594,18.6865803 C80.2110893,20.415992 77.2425591,22.4544409 74.5216369,21.1574973 C71.8002536,19.8600932 68.0898213,21.3426434 66.914951,24.4311745 C65.7396196,27.5197056 72.9137983,39.8742906 77.9231354,46.8545735 C82.9324726,53.8348564 79.0980058,58.2207917 72.7279769,56.6765261 C66.3579481,55.1318 27.2109741,25.5222467 -9.22190193e-05,65.0569186 C-9.22190193e-05,65.0569186 13.1932219,63.4094871 21.9337406,82.1884562 C30.6742594,100.966965 57.2259597,136.877011 93.1775447,119.910355 C93.1775447,119.910355 60.359562,131.440994 44.0326455,103.273 C27.7057291,75.1050073 24.2424438,70.1631733 24.2424438,70.1631733 C24.2424438,70.1631733 28.2004841,53.6907004 53.9277464,60.2795053 C79.6545476,66.8687709 102.907573,58.4676531 103.40279,24.3694591 C103.40279,24.3694591 101.341233,18.6865803 95.3216369,21.8985421 C89.3020403,25.110504 82.7881499,7.48478293 92.0234236,1.39016139 C101.258697,-4.70446015 85.096853,12.3856269 85.096853,12.3856269" id="Fill-33" fill="#40220F" mask="url(#mask-6)"></path>
                </g>
                <path d="M95.7339481,73.2002136 C95.7339481,73.2002136 94.249683,74.9296252 96.7234582,78.8830924 C99.1972334,82.8365595 121.460749,110.757691 110.823746,130.524567 C110.823746,130.524567 79.2834582,145.350069 64.9360231,135.960584 C50.5881268,126.57156 43.7851297,99.3914731 33.0245533,93.9559163 C33.0245533,93.9559163 36.6114121,82.2189454 59.7408646,84.9371844 C82.870317,87.6549628 95.7339481,73.2002136 95.7339481,73.2002136" id="Fill-36" fill="#40220F"></path>
                <path d="M106.300818,33.655133 C119.768023,41.7416867 128.799954,56.4764578 128.799954,73.2823779 C128.799954,84.6596495 124.653787,95.082636 117.801914,103.142477 C118.355689,104.482714 118.867504,105.906772 119.306467,107.399455 C127.64445,98.4410567 132.757994,86.4498554 132.757994,73.2823779 C132.757994,55.0979947 123.018744,39.1445756 108.47811,30.3478347 C107.747735,31.6512262 107.009061,32.7455223 106.300818,33.655133" id="Fill-38" fill="#40220F"></path>
                <path d="M39.9534294,55.2467103 C44.746513,43.997475 53.8849568,35.0317078 65.2477233,30.43898 C64.5800576,29.2806657 64.1032853,28.0191855 63.7666859,26.7738249 C51.1294524,31.8823824 41.037464,41.9797513 35.9455908,54.6138976 C37.1642651,54.7598959 38.5152738,54.9643856 39.9534294,55.2467103" id="Fill-40" fill="#40220F"></path>
            </g>
        </g>
    </g>
</svg>